<svg width="2144" height="1281" viewBox="0 0 2144 1281" fill="none" xmlns="http://www.w3.org/2000/svg">
<rect width="2144" height="1281" fill="black"/>
<path d="M294.446 625.655V510H371.106V615.141L452.946 696.828L533.75 615.141V510H611.446V637.787L490.24 768H423.939L294.446 625.655Z" fill="#E0231F"/>
<path d="M820.501 705.441V639.091H1009.69C1017.28 639.091 1023.6 637.954 1028.65 635.679C1033.96 633.151 1036.61 627.97 1036.61 620.134C1036.61 612.046 1033.96 606.864 1028.65 604.589C1023.6 602.314 1017.28 601.177 1009.69 601.177H826.568V768H731.782V525.348H994.907C1013.86 525.348 1031.56 526.738 1047.99 529.519C1064.67 532.046 1079.2 536.722 1091.59 543.547C1103.97 550.372 1113.71 559.977 1120.78 572.362C1127.86 584.747 1131.4 600.671 1131.4 620.134C1131.4 639.597 1127.86 655.015 1120.78 666.39C1113.71 677.764 1103.97 686.231 1091.59 691.792C1079.2 697.353 1064.67 701.018 1047.99 702.787C1031.56 704.557 1013.86 705.441 994.907 705.441H820.501ZM1245.05 525.348H1339.84V768H1245.05V525.348ZM1444.07 525.348H1838.38V597.385H1444.07V525.348ZM1593.83 592.457H1688.62V768H1593.83V592.457Z" fill="#FAFAFA"/>
<path d="M738.665 418.489H796.371V429.031H738.665V418.489ZM760.582 428.31H774.453V454H760.582V428.31ZM892.008 430.751H931.07V441.294H892.008V430.751ZM929.517 418.489H943.388V454H929.517V418.489ZM880.134 418.489H894.005V454H880.134V418.489ZM1043.28 439.019V443.458H1085.45V454H1029.41V418.489H1085.34V429.031H1043.28V433.47H1077.68V439.019H1043.28Z" fill="#FAFAFA"/>
<rect x="294" y="408" width="318" height="58" fill="#E0231F"/>
</svg>
